<?xml version="1.0" encoding="UTF-8" standalone="no"?>
<svg
   xmlns:dc="http://purl.org/dc/elements/1.1/"
   xmlns:cc="http://creativecommons.org/ns#"
   xmlns:rdf="http://www.w3.org/1999/02/22-rdf-syntax-ns#"
   xmlns:svg="http://www.w3.org/2000/svg"
   xmlns="http://www.w3.org/2000/svg"
   xmlns:sodipodi="http://sodipodi.sourceforge.net/DTD/sodipodi-0.dtd"
   xmlns:inkscape="http://www.inkscape.org/namespaces/inkscape"
   version="1.1"
   id="svg2"
   xml:space="preserve"
   width="694.66669"
   height="694.66669"
   viewBox="0 0 694.66669 694.66669"
   sodipodi:docname="Rating.Land.ai"><metadata
     id="metadata8"><rdf:RDF><cc:Work
         rdf:about=""><dc:format>image/svg+xml</dc:format><dc:type
           rdf:resource="http://purl.org/dc/dcmitype/StillImage" /></cc:Work></rdf:RDF></metadata><defs
     id="defs6"><radialGradient
       fx="0"
       fy="0"
       cx="0"
       cy="0"
       r="1"
       gradientUnits="userSpaceOnUse"
       gradientTransform="matrix(248.42522,0,0,-248.42522,261.81519,259.5)"
       spreadMethod="pad"
       id="radialGradient36"><stop
         style="stop-opacity:1;stop-color:#00aeef"
         offset="0"
         id="stop24" /><stop
         style="stop-opacity:1;stop-color:#00aeef"
         offset="0"
         id="stop26" /><stop
         style="stop-opacity:1;stop-color:#00aeef"
         offset="0"
         id="stop28" /><stop
         style="stop-opacity:1;stop-color:#ffffff"
         offset="0.1133"
         id="stop30" /><stop
         style="stop-opacity:1;stop-color:#e4f5fd"
         offset="0.123153"
         id="stop32" /><stop
         style="stop-opacity:1;stop-color:#00aeef"
         offset="1"
         id="stop34" /></radialGradient><linearGradient
       x1="0"
       y1="0"
       x2="1"
       y2="0"
       gradientUnits="userSpaceOnUse"
       gradientTransform="matrix(0,365.99661,365.99661,0,133.17519,72.067253)"
       spreadMethod="pad"
       id="linearGradient62"><stop
         style="stop-opacity:1;stop-color:#91268f"
         offset="0"
         id="stop52" /><stop
         style="stop-opacity:1;stop-color:#91268f"
         offset="0"
         id="stop54" /><stop
         style="stop-opacity:1;stop-color:#91268f"
         offset="0"
         id="stop56" /><stop
         style="stop-opacity:1;stop-color:#262261"
         offset="0.995074"
         id="stop58" /><stop
         style="stop-opacity:1;stop-color:#262261"
         offset="1"
         id="stop60" /></linearGradient><linearGradient
       x1="0"
       y1="0"
       x2="1"
       y2="0"
       gradientUnits="userSpaceOnUse"
       gradientTransform="matrix(0,365.99661,365.99661,0,263.81519,72.067253)"
       spreadMethod="pad"
       id="linearGradient86"><stop
         style="stop-opacity:1;stop-color:#91268f"
         offset="0"
         id="stop78" /><stop
         style="stop-opacity:1;stop-color:#91268f"
         offset="0"
         id="stop80" /><stop
         style="stop-opacity:1;stop-color:#91268f"
         offset="0"
         id="stop82" /><stop
         style="stop-opacity:1;stop-color:#262261"
         offset="1"
         id="stop84" /></linearGradient><linearGradient
       x1="0"
       y1="0"
       x2="1"
       y2="0"
       gradientUnits="userSpaceOnUse"
       gradientTransform="matrix(0,365.99661,365.99661,0,391.17517,72.067253)"
       spreadMethod="pad"
       id="linearGradient110"><stop
         style="stop-opacity:1;stop-color:#262261"
         offset="0"
         id="stop102" /><stop
         style="stop-opacity:1;stop-color:#262261"
         offset="0"
         id="stop104" /><stop
         style="stop-opacity:1;stop-color:#262261"
         offset="0"
         id="stop106" /><stop
         style="stop-opacity:1;stop-color:#91268f"
         offset="1"
         id="stop108" /></linearGradient><clipPath
       clipPathUnits="userSpaceOnUse"
       id="clipPath120"><path
         d="M 0,521 H 521 V 0 H 0 Z"
         id="path118" /></clipPath></defs><sodipodi:namedview
     pagecolor="#ffffff"
     bordercolor="#666666"
     borderopacity="1"
     objecttolerance="10"
     gridtolerance="10"
     guidetolerance="10"
     inkscape:pageopacity="0"
     inkscape:pageshadow="2"
     inkscape:window-width="640"
     inkscape:window-height="480"
     id="namedview4" /><g
     id="g10"
     inkscape:groupmode="layer"
     inkscape:label="Rating.Land"
     transform="matrix(1.3333333,0,0,-1.3333333,0,694.66667)"><g
       id="g12"><g
         id="g14"><g
           id="g20"><g
             id="g22"><path
               d="m 126.087,507.67 c -6.172,-0.006 -12.417,-0.547 -18.502,-1.58 v 0 C 53.492,496.908 13.235,449.193 13.226,394.393 v 0 C 13.21,305.456 13.205,216.52 13.296,127.583 v 0 c 0.006,-6.537 0.383,-13.138 1.338,-19.598 v 0 C 22.79,52.816 70.793,11.354 126.45,11.297 v 0 c 30.631,-0.033 61.264,-0.025 91.896,-0.019 v 0 c 14.493,0.003 28.986,0.006 43.478,0.006 v 0 c 22.444,-0.003 44.887,-0.003 67.33,-0.003 v 0 c 22.443,0 44.886,-0.112 67.327,0.073 v 0 c 6.417,0.054 12.903,0.514 19.229,1.564 v 0 c 54.242,8.995 94.669,56.814 94.682,111.808 v 0 c 0.021,89.414 0.047,178.828 -0.032,268.242 v 0 c -0.005,6.177 -0.499,12.405 -1.375,18.522 v 0 c -7.743,54.138 -56.316,96.21 -111.074,96.235 v 0 c -36.29,0.017 -72.594,0.027 -108.883,0.027 v 0 c -54.318,0 -108.623,-0.023 -162.941,-0.082"
               style="fill:url(#radialGradient36);stroke:none"
               id="path38" /></g></g></g></g><g
       id="g40"><g
         id="g42"><g
           id="g48"><g
             id="g50"><path
               d="M 82.175,387.065 V 123.067 c 0,-28.05 22.95,-50.999 51,-50.999 v 0 c 28.05,0 51,22.949 51,50.999 v 0 263.998 c 0,28.049 -22.95,50.999 -51,50.999 v 0 c -28.05,0 -51,-22.95 -51,-50.999"
               style="fill:url(#linearGradient62);stroke:none"
               id="path64" /></g></g></g></g><g
       id="g66"><g
         id="g68"><g
           id="g74"><g
             id="g76"><path
               d="M 212.816,387.065 V 123.067 c 0,-28.05 22.95,-50.999 50.999,-50.999 v 0 c 28.05,0 51,22.949 51,50.999 v 0 263.998 c 0,28.049 -22.95,50.999 -51,50.999 v 0 c -28.049,0 -50.999,-22.95 -50.999,-50.999"
               style="fill:url(#linearGradient86);stroke:none"
               id="path88" /></g></g></g></g><g
       id="g90"><g
         id="g92"><g
           id="g98"><g
             id="g100"><path
               d="M 340.176,387.065 V 123.067 c 0,-28.05 22.95,-50.999 50.999,-50.999 v 0 c 28.049,0 50.999,22.949 50.999,50.999 v 0 263.998 c 0,28.049 -22.95,50.999 -50.999,50.999 v 0 c -28.049,0 -50.999,-22.95 -50.999,-50.999"
               style="fill:url(#linearGradient110);stroke:none"
               id="path112" /></g></g></g></g><g
       id="g114"><g
         id="g116"
         clip-path="url(#clipPath120)"><g
           id="g122"
           transform="translate(436.175,387.1189)"><path
             d="m 0,0 c 0,-24.853 -20.147,-45 -45,-45 -24.852,0 -45,20.147 -45,45 0,24.853 20.148,45 45,45 C -20.147,45 0,24.853 0,0"
             style="fill:#252626;fill-opacity:1;fill-rule:nonzero;stroke:none"
             id="path124" /></g><g
           id="g126"
           transform="translate(391.1752,427.6049)"><path
             d="m 0,0 -8.931,-27.211 -28.639,-0.085 23.12,-16.902 -0.026,-0.083 c 16.284,9.516 35.722,14.401 52.046,16.985 l -28.639,0.085 z"
             style="fill:#fed41d;fill-opacity:1;fill-rule:nonzero;stroke:none"
             id="path128" /></g><g
           id="g130"
           transform="translate(428.7449,400.309)"><path
             d="m 0,0 c -37.489,-13.533 -60.789,-44.166 -60.789,-44.166 l 23.219,16.765 23.22,-16.765 -8.77,27.264 z"
             style="fill:#fed41d;fill-opacity:1;fill-rule:nonzero;stroke:none"
             id="path132" /></g><g
           id="g134"
           transform="translate(178.1749,123.507)"><path
             d="m 0,0 c 0,-24.853 -20.147,-45 -45,-45 -24.852,0 -45,20.147 -45,45 0,24.853 20.148,45 45,45 C -20.147,45 0,24.853 0,0"
             style="fill:#252626;fill-opacity:1;fill-rule:nonzero;stroke:none"
             id="path136" /></g><g
           id="g138"
           transform="translate(133.1752,163.9931)"><path
             d="m 0,0 -8.931,-27.211 -28.639,-0.085 23.12,-16.902 -0.026,-0.083 c 16.284,9.516 35.722,14.401 52.046,16.985 l -28.639,0.085 z"
             style="fill:#fed41d;fill-opacity:1;fill-rule:nonzero;stroke:none"
             id="path140" /></g><g
           id="g142"
           transform="translate(170.7449,136.6971)"><path
             d="m 0,0 c -37.489,-13.533 -60.789,-44.166 -60.789,-44.166 l 23.219,16.765 23.22,-16.765 -8.77,27.264 z"
             style="fill:#fed41d;fill-opacity:1;fill-rule:nonzero;stroke:none"
             id="path144" /></g><g
           id="g146"
           transform="translate(308.8149,123.507)"><path
             d="m 0,0 c 0,-24.853 -20.147,-45 -45,-45 -24.852,0 -45,20.147 -45,45 0,24.853 20.148,45 45,45 C -20.147,45 0,24.853 0,0"
             style="fill:#252626;fill-opacity:1;fill-rule:nonzero;stroke:none"
             id="path148" /></g><g
           id="g150"
           transform="translate(263.8152,163.9931)"><path
             d="m 0,0 -8.931,-27.211 -28.639,-0.085 23.12,-16.902 -0.026,-0.083 c 16.284,9.516 35.722,14.401 52.046,16.985 l -28.639,0.085 z"
             style="fill:#fed41d;fill-opacity:1;fill-rule:nonzero;stroke:none"
             id="path152" /></g><g
           id="g154"
           transform="translate(301.3849,136.6971)"><path
             d="m 0,0 c -37.488,-13.533 -60.789,-44.166 -60.789,-44.166 l 23.219,16.765 23.22,-16.765 -8.77,27.264 z"
             style="fill:#fed41d;fill-opacity:1;fill-rule:nonzero;stroke:none"
             id="path156" /></g></g></g></g></svg>
