<?xml version="1.0" encoding="UTF-8" standalone="no"?>
<svg
   xmlns:dc="http://purl.org/dc/elements/1.1/"
   xmlns:cc="http://creativecommons.org/ns#"
   xmlns:rdf="http://www.w3.org/1999/02/22-rdf-syntax-ns#"
   xmlns:svg="http://www.w3.org/2000/svg"
   xmlns="http://www.w3.org/2000/svg"
   xmlns:sodipodi="http://sodipodi.sourceforge.net/DTD/sodipodi-0.dtd"
   xmlns:inkscape="http://www.inkscape.org/namespaces/inkscape"
   version="1.1"
   id="svg2"
   xml:space="preserve"
   width="1440"
   height="1440"
   viewBox="0 0 1440 1440"
   sodipodi:docname="RatinQ_black.ai"><metadata
     id="metadata8"><rdf:RDF><cc:Work
         rdf:about=""><dc:format>image/svg+xml</dc:format><dc:type
           rdf:resource="http://purl.org/dc/dcmitype/StillImage" /></cc:Work></rdf:RDF></metadata><defs
     id="defs6"><clipPath
       clipPathUnits="userSpaceOnUse"
       id="clipPath18"><path
         d="M 0,1080 H 1080 V 0 H 0 Z"
         id="path16" /></clipPath></defs><sodipodi:namedview
     pagecolor="#ffffff"
     bordercolor="#666666"
     borderopacity="1"
     objecttolerance="10"
     gridtolerance="10"
     guidetolerance="10"
     inkscape:pageopacity="0"
     inkscape:pageshadow="2"
     inkscape:window-width="640"
     inkscape:window-height="480"
     id="namedview4" /><g
     id="g10"
     inkscape:groupmode="layer"
     inkscape:label="RatinQ_black"
     transform="matrix(1.3333333,0,0,-1.3333333,0,1440)"><g
       id="g12"><g
         id="g14"
         clip-path="url(#clipPath18)"><g
           id="g20"
           transform="translate(936,715.3578)"><path
             d="m 0,0 v 1.642 c 0,121 -99,220 -220,220 h -353.5 c -121,0 -220,-99 -220,-220 v -353.5 c 0,-121 99,-220 220,-220 H -220 c 121,0 220,99 220,220 v 1.142"
             style="fill:none;stroke:#4a4a4a;stroke-width:100;stroke-linecap:butt;stroke-linejoin:miter;stroke-miterlimit:10;stroke-dasharray:none;stroke-opacity:1"
             id="path22" /></g><g
           id="g24"
           transform="translate(388.3343,248.828)"><path
             d="m 0,0 h -80.602 c -6.6,0 -12,5.4 -12,12 v 263.988 c 0,16.5 13.5,30 30,30 H 0 c 6.6,0 12,-5.4 12,-12 L 12,12 C 12,5.4 6.6,0 0,0"
             style="fill:#4a4a4a;fill-opacity:1;fill-rule:nonzero;stroke:none"
             id="path26" /></g><g
           id="g28"
           transform="translate(770.1958,248.828)"><path
             d="m 0,0 h -80.101 c -6.6,0 -12,5.4 -12,12 v 512.118 c 0,16.5 13.5,30 30,30 H 0 c 6.6,0 12,-5.4 12,-12 V 12 C 12,5.4 6.6,0 0,0"
             style="fill:#4a4a4a;fill-opacity:1;fill-rule:nonzero;stroke:none"
             id="path30" /></g><g
           id="g32"
           transform="translate(590.0365,479.5652)"><path
             d="m 0,0 v 201.378 c 0,6.6 -5.4,12 -12,12 h -56.073 c -16.5,0 -30,-13.5 -30,-30 V 2.853 l 48.041,47.84 z"
             style="fill:#4a4a4a;fill-opacity:1;fill-rule:nonzero;stroke:none"
             id="path34" /></g><g
           id="g36"
           transform="translate(540.0045,498.5652)"><path
             d="m 0,0 -48.041,-47.84 v -189.897 c 0,-6.6 5.4,-12 12,-12 h 74.073 c 6.6,0 12,5.4 12,12 v 187.044 z"
             style="fill:#4a4a4a;fill-opacity:1;fill-rule:nonzero;stroke:none"
             id="path38" /></g></g></g></g></svg>
